<?xml version="1.0" encoding="utf-8"?>
<!-- Generator: Adobe Illustrator 16.0.0, SVG Export Plug-In . SVG Version: 6.00 Build 0)  -->
<!DOCTYPE svg PUBLIC "-//W3C//DTD SVG 1.1//EN" "http://www.w3.org/Graphics/SVG/1.1/DTD/svg11.dtd">
<svg version="1.1" xmlns="http://www.w3.org/2000/svg" xmlns:xlink="http://www.w3.org/1999/xlink" x="0px" y="0px"
	 width="399.334px" height="399.333px" viewBox="0 0 399.334 399.333" enable-background="new 0 0 399.334 399.333"
	 xml:space="preserve">
<g id="Layer_1" display="none">
	<g display="inline">
		<rect x="111.167" y="326.5" fill="#FFF9F3" stroke="#C69C6D" stroke-miterlimit="10" width="175" height="67"/>
		<rect x="115.667" y="330.963" fill="#C69C6D" width="1.5" height="2"/>
		<rect x="115.667" y="337.963" fill="#C69C6D" width="1.5" height="2"/>
		<rect x="115.667" y="344.963" fill="#C69C6D" width="1.5" height="2"/>
		<rect x="115.667" y="351.963" fill="#C69C6D" width="1.5" height="2"/>
		<rect x="115.667" y="358.963" fill="#C69C6D" width="1.5" height="2"/>
		<rect x="115.667" y="365.963" fill="#C69C6D" width="1.5" height="2"/>
		<rect x="115.667" y="372.963" fill="#C69C6D" width="1.5" height="2"/>
		<rect x="115.667" y="379.963" fill="#C69C6D" width="1.5" height="2"/>
		<rect x="115.667" y="386.963" fill="#C69C6D" width="1.5" height="2"/>
		<rect x="119.667" y="330.963" fill="#C69C6D" width="1.5" height="2"/>
		<rect x="119.667" y="337.963" fill="#C69C6D" width="1.5" height="2"/>
		<rect x="119.667" y="344.963" fill="#C69C6D" width="1.5" height="2"/>
		<rect x="119.667" y="351.963" fill="#C69C6D" width="1.5" height="2"/>
		<rect x="119.667" y="358.963" fill="#C69C6D" width="1.5" height="2"/>
		<rect x="119.667" y="365.963" fill="#C69C6D" width="1.5" height="2"/>
		<rect x="119.667" y="372.963" fill="#C69C6D" width="1.5" height="2"/>
		<rect x="119.667" y="379.963" fill="#C69C6D" width="1.5" height="2"/>
		<rect x="119.667" y="386.963" fill="#C69C6D" width="1.5" height="2"/>
		<rect x="123.667" y="330.963" fill="#C69C6D" width="1.5" height="2"/>
		<rect x="123.667" y="337.963" fill="#C69C6D" width="1.5" height="2"/>
		<rect x="123.667" y="344.963" fill="#C69C6D" width="1.5" height="2"/>
		<rect x="123.667" y="351.963" fill="#C69C6D" width="1.5" height="2"/>
		<rect x="123.667" y="358.963" fill="#C69C6D" width="1.5" height="2"/>
		<rect x="123.667" y="365.963" fill="#C69C6D" width="1.5" height="2"/>
		<rect x="123.667" y="372.963" fill="#C69C6D" width="1.5" height="2"/>
		<rect x="123.667" y="379.963" fill="#C69C6D" width="1.5" height="2"/>
		<rect x="123.667" y="386.963" fill="#C69C6D" width="1.5" height="2"/>
		<rect x="127.667" y="330.963" fill="#C69C6D" width="1.5" height="2"/>
		<rect x="127.667" y="337.963" fill="#C69C6D" width="1.5" height="2"/>
		<rect x="127.667" y="344.963" fill="#C69C6D" width="1.5" height="2"/>
		<rect x="127.667" y="351.963" fill="#C69C6D" width="1.5" height="2"/>
		<rect x="127.667" y="358.963" fill="#C69C6D" width="1.5" height="2"/>
		<rect x="127.667" y="365.963" fill="#C69C6D" width="1.5" height="2"/>
		<rect x="127.667" y="372.963" fill="#C69C6D" width="1.5" height="2"/>
		<rect x="127.667" y="379.963" fill="#C69C6D" width="1.5" height="2"/>
		<rect x="127.667" y="386.963" fill="#C69C6D" width="1.5" height="2"/>
		<rect x="131.667" y="330.963" fill="#C69C6D" width="1.5" height="2"/>
		<rect x="131.667" y="337.963" fill="#C69C6D" width="1.5" height="2"/>
		<rect x="131.667" y="344.963" fill="#C69C6D" width="1.5" height="2"/>
		<rect x="131.667" y="351.963" fill="#C69C6D" width="1.5" height="2"/>
		<rect x="131.667" y="358.963" fill="#C69C6D" width="1.5" height="2"/>
		<rect x="131.667" y="365.963" fill="#C69C6D" width="1.5" height="2"/>
		<rect x="131.667" y="372.963" fill="#C69C6D" width="1.5" height="2"/>
		<rect x="131.667" y="379.963" fill="#C69C6D" width="1.5" height="2"/>
		<rect x="131.667" y="386.963" fill="#C69C6D" width="1.5" height="2"/>
		<rect x="135.667" y="330.963" fill="#C69C6D" width="1.5" height="2"/>
		<rect x="135.667" y="337.963" fill="#C69C6D" width="1.5" height="2"/>
		<rect x="135.667" y="344.963" fill="#C69C6D" width="1.5" height="2"/>
		<rect x="135.667" y="351.963" fill="#C69C6D" width="1.5" height="2"/>
		<rect x="135.667" y="358.963" fill="#C69C6D" width="1.5" height="2"/>
		<rect x="135.667" y="365.963" fill="#C69C6D" width="1.5" height="2"/>
		<rect x="135.667" y="372.963" fill="#C69C6D" width="1.5" height="2"/>
		<rect x="135.667" y="379.963" fill="#C69C6D" width="1.5" height="2"/>
		<rect x="135.667" y="386.963" fill="#C69C6D" width="1.5" height="2"/>
		<rect x="145.667" y="330.963" fill="#C69C6D" width="1.5" height="2"/>
		<rect x="145.667" y="337.963" fill="#C69C6D" width="1.5" height="2"/>
		<rect x="145.667" y="344.963" fill="#C69C6D" width="1.5" height="2"/>
		<rect x="145.667" y="351.963" fill="#C69C6D" width="1.5" height="2"/>
		<rect x="145.667" y="358.963" fill="#C69C6D" width="1.5" height="2"/>
		<rect x="145.667" y="365.963" fill="#C69C6D" width="1.5" height="2"/>
		<rect x="145.667" y="372.963" fill="#C69C6D" width="1.5" height="2"/>
		<rect x="145.667" y="379.963" fill="#C69C6D" width="1.5" height="2"/>
		<rect x="145.667" y="386.963" fill="#C69C6D" width="1.5" height="2"/>
		<rect x="149.667" y="330.963" fill="#C69C6D" width="1.5" height="2"/>
		<rect x="149.667" y="337.963" fill="#C69C6D" width="1.5" height="2"/>
		<rect x="149.667" y="344.963" fill="#C69C6D" width="1.5" height="2"/>
		<rect x="149.667" y="351.963" fill="#C69C6D" width="1.5" height="2"/>
		<rect x="149.667" y="358.963" fill="#C69C6D" width="1.5" height="2"/>
		<rect x="149.667" y="365.963" fill="#C69C6D" width="1.5" height="2"/>
		<rect x="149.667" y="372.963" fill="#C69C6D" width="1.5" height="2"/>
		<rect x="149.667" y="379.963" fill="#C69C6D" width="1.5" height="2"/>
		<rect x="149.667" y="386.963" fill="#C69C6D" width="1.5" height="2"/>
		<rect x="153.667" y="330.963" fill="#C69C6D" width="1.5" height="2"/>
		<rect x="153.667" y="337.963" fill="#C69C6D" width="1.5" height="2"/>
		<rect x="153.667" y="344.963" fill="#C69C6D" width="1.5" height="2"/>
		<rect x="153.667" y="351.963" fill="#C69C6D" width="1.5" height="2"/>
		<rect x="153.667" y="358.963" fill="#C69C6D" width="1.5" height="2"/>
		<rect x="153.667" y="365.963" fill="#C69C6D" width="1.5" height="2"/>
		<rect x="153.667" y="372.963" fill="#C69C6D" width="1.5" height="2"/>
		<rect x="153.667" y="379.963" fill="#C69C6D" width="1.5" height="2"/>
		<rect x="153.667" y="386.963" fill="#C69C6D" width="1.5" height="2"/>
		<rect x="157.667" y="330.963" fill="#C69C6D" width="1.5" height="2"/>
		<rect x="157.667" y="337.963" fill="#C69C6D" width="1.5" height="2"/>
		<rect x="157.667" y="344.963" fill="#C69C6D" width="1.5" height="2"/>
		<rect x="157.667" y="351.963" fill="#C69C6D" width="1.5" height="2"/>
		<rect x="157.667" y="358.963" fill="#C69C6D" width="1.5" height="2"/>
		<rect x="157.667" y="365.963" fill="#C69C6D" width="1.5" height="2"/>
		<rect x="157.667" y="372.963" fill="#C69C6D" width="1.5" height="2"/>
		<rect x="157.667" y="379.963" fill="#C69C6D" width="1.5" height="2"/>
		<rect x="157.667" y="386.963" fill="#C69C6D" width="1.5" height="2"/>
		<rect x="161.667" y="330.963" fill="#C69C6D" width="1.5" height="2"/>
		<rect x="161.667" y="337.963" fill="#C69C6D" width="1.5" height="2"/>
		<rect x="161.667" y="344.963" fill="#C69C6D" width="1.5" height="2"/>
		<rect x="161.667" y="351.963" fill="#C69C6D" width="1.5" height="2"/>
		<rect x="161.667" y="358.963" fill="#C69C6D" width="1.5" height="2"/>
		<rect x="161.667" y="365.963" fill="#C69C6D" width="1.5" height="2"/>
		<rect x="161.667" y="372.963" fill="#C69C6D" width="1.5" height="2"/>
		<rect x="161.667" y="379.963" fill="#C69C6D" width="1.5" height="2"/>
		<rect x="161.667" y="386.963" fill="#C69C6D" width="1.5" height="2"/>
		<rect x="165.667" y="330.963" fill="#C69C6D" width="1.5" height="2"/>
		<rect x="165.667" y="337.963" fill="#C69C6D" width="1.5" height="2"/>
		<rect x="165.667" y="344.963" fill="#C69C6D" width="1.5" height="2"/>
		<rect x="165.667" y="351.963" fill="#C69C6D" width="1.5" height="2"/>
		<rect x="165.667" y="358.963" fill="#C69C6D" width="1.5" height="2"/>
		<rect x="165.667" y="365.963" fill="#C69C6D" width="1.5" height="2"/>
		<rect x="165.667" y="372.963" fill="#C69C6D" width="1.5" height="2"/>
		<rect x="165.667" y="379.963" fill="#C69C6D" width="1.5" height="2"/>
		<rect x="165.667" y="386.963" fill="#C69C6D" width="1.5" height="2"/>
		<rect x="175.667" y="330.963" fill="#C69C6D" width="1.5" height="2"/>
		<rect x="175.667" y="337.963" fill="#C69C6D" width="1.5" height="2"/>
		<rect x="175.667" y="344.963" fill="#C69C6D" width="1.5" height="2"/>
		<rect x="175.667" y="351.963" fill="#C69C6D" width="1.5" height="2"/>
		<rect x="175.667" y="358.963" fill="#C69C6D" width="1.5" height="2"/>
		<rect x="175.667" y="365.963" fill="#C69C6D" width="1.5" height="2"/>
		<rect x="175.667" y="372.963" fill="#C69C6D" width="1.5" height="2"/>
		<rect x="175.667" y="379.963" fill="#C69C6D" width="1.5" height="2"/>
		<rect x="175.667" y="386.963" fill="#C69C6D" width="1.5" height="2"/>
		<rect x="179.667" y="330.963" fill="#C69C6D" width="1.5" height="2"/>
		<rect x="179.667" y="337.963" fill="#C69C6D" width="1.5" height="2"/>
		<rect x="179.667" y="344.963" fill="#C69C6D" width="1.5" height="2"/>
		<rect x="179.667" y="351.963" fill="#C69C6D" width="1.5" height="2"/>
		<rect x="179.667" y="358.963" fill="#C69C6D" width="1.5" height="2"/>
		<rect x="179.667" y="365.963" fill="#C69C6D" width="1.5" height="2"/>
		<rect x="179.667" y="372.963" fill="#C69C6D" width="1.5" height="2"/>
		<rect x="179.667" y="379.963" fill="#C69C6D" width="1.5" height="2"/>
		<rect x="179.667" y="386.963" fill="#C69C6D" width="1.5" height="2"/>
		<rect x="183.667" y="330.963" fill="#C69C6D" width="1.5" height="2"/>
		<rect x="183.667" y="337.963" fill="#C69C6D" width="1.5" height="2"/>
		<rect x="183.667" y="344.963" fill="#C69C6D" width="1.5" height="2"/>
		<rect x="183.667" y="351.963" fill="#C69C6D" width="1.5" height="2"/>
		<rect x="183.667" y="358.963" fill="#C69C6D" width="1.5" height="2"/>
		<rect x="183.667" y="365.963" fill="#C69C6D" width="1.5" height="2"/>
		<rect x="183.667" y="372.963" fill="#C69C6D" width="1.5" height="2"/>
		<rect x="183.667" y="379.963" fill="#C69C6D" width="1.5" height="2"/>
		<rect x="183.667" y="386.963" fill="#C69C6D" width="1.5" height="2"/>
		<rect x="187.667" y="330.963" fill="#C69C6D" width="1.5" height="2"/>
		<rect x="187.667" y="337.963" fill="#C69C6D" width="1.5" height="2"/>
		<rect x="187.667" y="344.963" fill="#C69C6D" width="1.5" height="2"/>
		<rect x="187.667" y="351.963" fill="#C69C6D" width="1.5" height="2"/>
		<rect x="187.667" y="358.963" fill="#C69C6D" width="1.5" height="2"/>
		<rect x="187.667" y="365.963" fill="#C69C6D" width="1.5" height="2"/>
		<rect x="187.667" y="372.963" fill="#C69C6D" width="1.5" height="2"/>
		<rect x="187.667" y="379.963" fill="#C69C6D" width="1.5" height="2"/>
		<rect x="187.667" y="386.963" fill="#C69C6D" width="1.5" height="2"/>
		<rect x="191.667" y="330.963" fill="#C69C6D" width="1.5" height="2"/>
		<rect x="191.667" y="337.963" fill="#C69C6D" width="1.5" height="2"/>
		<rect x="191.667" y="344.963" fill="#C69C6D" width="1.5" height="2"/>
		<rect x="191.667" y="351.963" fill="#C69C6D" width="1.5" height="2"/>
		<rect x="191.667" y="358.963" fill="#C69C6D" width="1.5" height="2"/>
		<rect x="191.667" y="365.963" fill="#C69C6D" width="1.5" height="2"/>
		<rect x="191.667" y="372.963" fill="#C69C6D" width="1.5" height="2"/>
		<rect x="191.667" y="379.963" fill="#C69C6D" width="1.5" height="2"/>
		<rect x="191.667" y="386.963" fill="#C69C6D" width="1.5" height="2"/>
		<rect x="195.667" y="330.963" fill="#C69C6D" width="1.5" height="2"/>
		<rect x="195.667" y="337.963" fill="#C69C6D" width="1.5" height="2"/>
		<rect x="195.667" y="344.963" fill="#C69C6D" width="1.5" height="2"/>
		<rect x="195.667" y="351.963" fill="#C69C6D" width="1.5" height="2"/>
		<rect x="195.667" y="358.963" fill="#C69C6D" width="1.5" height="2"/>
		<rect x="195.667" y="365.963" fill="#C69C6D" width="1.5" height="2"/>
		<rect x="195.667" y="372.963" fill="#C69C6D" width="1.5" height="2"/>
		<rect x="195.667" y="379.963" fill="#C69C6D" width="1.5" height="2"/>
		<rect x="195.667" y="386.963" fill="#C69C6D" width="1.5" height="2"/>
		<rect x="205.667" y="330.963" fill="#C69C6D" width="1.5" height="2"/>
		<rect x="205.667" y="337.963" fill="#C69C6D" width="1.5" height="2"/>
		<rect x="205.667" y="344.963" fill="#C69C6D" width="1.5" height="2"/>
		<rect x="205.667" y="351.963" fill="#C69C6D" width="1.5" height="2"/>
		<rect x="205.667" y="358.963" fill="#C69C6D" width="1.5" height="2"/>
		<rect x="205.667" y="365.963" fill="#C69C6D" width="1.5" height="2"/>
		<rect x="205.667" y="372.963" fill="#C69C6D" width="1.5" height="2"/>
		<rect x="205.667" y="379.963" fill="#C69C6D" width="1.5" height="2"/>
		<rect x="205.667" y="386.963" fill="#C69C6D" width="1.5" height="2"/>
		<rect x="209.667" y="330.963" fill="#C69C6D" width="1.5" height="2"/>
		<rect x="209.667" y="337.963" fill="#C69C6D" width="1.5" height="2"/>
		<rect x="209.667" y="344.963" fill="#C69C6D" width="1.5" height="2"/>
		<rect x="209.667" y="351.963" fill="#C69C6D" width="1.5" height="2"/>
		<rect x="209.667" y="358.963" fill="#C69C6D" width="1.5" height="2"/>
		<rect x="209.667" y="365.963" fill="#C69C6D" width="1.5" height="2"/>
		<rect x="209.667" y="372.963" fill="#C69C6D" width="1.5" height="2"/>
		<rect x="209.667" y="379.963" fill="#C69C6D" width="1.5" height="2"/>
		<rect x="209.667" y="386.963" fill="#C69C6D" width="1.5" height="2"/>
		<rect x="213.667" y="330.963" fill="#C69C6D" width="1.5" height="2"/>
		<rect x="213.667" y="337.963" fill="#C69C6D" width="1.5" height="2"/>
		<rect x="213.667" y="344.963" fill="#C69C6D" width="1.5" height="2"/>
		<rect x="213.667" y="351.963" fill="#C69C6D" width="1.5" height="2"/>
		<rect x="213.667" y="358.963" fill="#C69C6D" width="1.5" height="2"/>
		<rect x="213.667" y="365.963" fill="#C69C6D" width="1.5" height="2"/>
		<rect x="213.667" y="372.963" fill="#C69C6D" width="1.5" height="2"/>
		<rect x="213.667" y="379.963" fill="#C69C6D" width="1.5" height="2"/>
		<rect x="213.667" y="386.963" fill="#C69C6D" width="1.5" height="2"/>
		<rect x="217.667" y="330.963" fill="#C69C6D" width="1.5" height="2"/>
		<rect x="217.667" y="337.963" fill="#C69C6D" width="1.5" height="2"/>
		<rect x="217.667" y="344.963" fill="#C69C6D" width="1.5" height="2"/>
		<rect x="217.667" y="351.963" fill="#C69C6D" width="1.5" height="2"/>
		<rect x="217.667" y="358.963" fill="#C69C6D" width="1.5" height="2"/>
		<rect x="217.667" y="365.963" fill="#C69C6D" width="1.5" height="2"/>
		<rect x="217.667" y="372.963" fill="#C69C6D" width="1.5" height="2"/>
		<rect x="217.667" y="379.963" fill="#C69C6D" width="1.5" height="2"/>
		<rect x="217.667" y="386.963" fill="#C69C6D" width="1.5" height="2"/>
		<rect x="221.667" y="330.963" fill="#C69C6D" width="1.5" height="2"/>
		<rect x="221.667" y="337.963" fill="#C69C6D" width="1.5" height="2"/>
		<rect x="221.667" y="344.963" fill="#C69C6D" width="1.5" height="2"/>
		<rect x="221.667" y="351.963" fill="#C69C6D" width="1.5" height="2"/>
		<rect x="221.667" y="358.963" fill="#C69C6D" width="1.5" height="2"/>
		<rect x="221.667" y="365.963" fill="#C69C6D" width="1.5" height="2"/>
		<rect x="221.667" y="372.963" fill="#C69C6D" width="1.5" height="2"/>
		<rect x="221.667" y="379.963" fill="#C69C6D" width="1.5" height="2"/>
		<rect x="221.667" y="386.963" fill="#C69C6D" width="1.5" height="2"/>
		<rect x="225.667" y="330.963" fill="#C69C6D" width="1.5" height="2"/>
		<rect x="225.667" y="337.963" fill="#C69C6D" width="1.5" height="2"/>
		<rect x="225.667" y="344.963" fill="#C69C6D" width="1.5" height="2"/>
		<rect x="225.667" y="351.963" fill="#C69C6D" width="1.5" height="2"/>
		<rect x="225.667" y="358.963" fill="#C69C6D" width="1.5" height="2"/>
		<rect x="225.667" y="365.963" fill="#C69C6D" width="1.5" height="2"/>
		<rect x="225.667" y="372.963" fill="#C69C6D" width="1.5" height="2"/>
		<rect x="225.667" y="379.963" fill="#C69C6D" width="1.5" height="2"/>
		<rect x="225.667" y="386.963" fill="#C69C6D" width="1.5" height="2"/>
		<rect x="235.667" y="330.963" fill="#C69C6D" width="1.5" height="2"/>
		<rect x="235.667" y="337.963" fill="#C69C6D" width="1.5" height="2"/>
		<rect x="235.667" y="344.963" fill="#C69C6D" width="1.5" height="2"/>
		<rect x="235.667" y="351.963" fill="#C69C6D" width="1.5" height="2"/>
		<rect x="235.667" y="358.963" fill="#C69C6D" width="1.5" height="2"/>
		<rect x="235.667" y="365.963" fill="#C69C6D" width="1.5" height="2"/>
		<rect x="235.667" y="372.963" fill="#C69C6D" width="1.5" height="2"/>
		<rect x="235.667" y="379.963" fill="#C69C6D" width="1.5" height="2"/>
		<rect x="235.667" y="386.963" fill="#C69C6D" width="1.5" height="2"/>
		<rect x="239.667" y="330.963" fill="#C69C6D" width="1.5" height="2"/>
		<rect x="239.667" y="337.963" fill="#C69C6D" width="1.5" height="2"/>
		<rect x="239.667" y="344.963" fill="#C69C6D" width="1.5" height="2"/>
		<rect x="239.667" y="351.963" fill="#C69C6D" width="1.5" height="2"/>
		<rect x="239.667" y="358.963" fill="#C69C6D" width="1.5" height="2"/>
		<rect x="239.667" y="365.963" fill="#C69C6D" width="1.5" height="2"/>
		<rect x="239.667" y="372.963" fill="#C69C6D" width="1.5" height="2"/>
		<rect x="239.667" y="379.963" fill="#C69C6D" width="1.5" height="2"/>
		<rect x="239.667" y="386.963" fill="#C69C6D" width="1.5" height="2"/>
		<rect x="243.667" y="330.963" fill="#C69C6D" width="1.5" height="2"/>
		<rect x="243.667" y="337.963" fill="#C69C6D" width="1.5" height="2"/>
		<rect x="243.667" y="344.963" fill="#C69C6D" width="1.5" height="2"/>
		<rect x="243.667" y="351.963" fill="#C69C6D" width="1.5" height="2"/>
		<rect x="243.667" y="358.963" fill="#C69C6D" width="1.5" height="2"/>
		<rect x="243.667" y="365.963" fill="#C69C6D" width="1.5" height="2"/>
		<rect x="243.667" y="372.963" fill="#C69C6D" width="1.5" height="2"/>
		<rect x="243.667" y="379.963" fill="#C69C6D" width="1.5" height="2"/>
		<rect x="243.667" y="386.963" fill="#C69C6D" width="1.5" height="2"/>
		<rect x="247.667" y="330.963" fill="#C69C6D" width="1.5" height="2"/>
		<rect x="247.667" y="337.963" fill="#C69C6D" width="1.5" height="2"/>
		<rect x="247.667" y="344.963" fill="#C69C6D" width="1.5" height="2"/>
		<rect x="247.667" y="351.963" fill="#C69C6D" width="1.5" height="2"/>
		<rect x="247.667" y="358.963" fill="#C69C6D" width="1.5" height="2"/>
		<rect x="247.667" y="365.963" fill="#C69C6D" width="1.5" height="2"/>
		<rect x="247.667" y="372.963" fill="#C69C6D" width="1.5" height="2"/>
		<rect x="247.667" y="379.963" fill="#C69C6D" width="1.5" height="2"/>
		<rect x="247.667" y="386.963" fill="#C69C6D" width="1.5" height="2"/>
		<rect x="251.667" y="330.963" fill="#C69C6D" width="1.5" height="2"/>
		<rect x="251.667" y="337.963" fill="#C69C6D" width="1.5" height="2"/>
		<rect x="251.667" y="344.963" fill="#C69C6D" width="1.5" height="2"/>
		<rect x="251.667" y="351.963" fill="#C69C6D" width="1.5" height="2"/>
		<rect x="251.667" y="358.963" fill="#C69C6D" width="1.5" height="2"/>
		<rect x="251.667" y="365.963" fill="#C69C6D" width="1.5" height="2"/>
		<rect x="251.667" y="372.963" fill="#C69C6D" width="1.5" height="2"/>
		<rect x="251.667" y="379.963" fill="#C69C6D" width="1.5" height="2"/>
		<rect x="251.667" y="386.963" fill="#C69C6D" width="1.5" height="2"/>
		<rect x="255.667" y="330.963" fill="#C69C6D" width="1.5" height="2"/>
		<rect x="255.667" y="337.963" fill="#C69C6D" width="1.5" height="2"/>
		<rect x="255.667" y="344.963" fill="#C69C6D" width="1.5" height="2"/>
		<rect x="255.667" y="351.963" fill="#C69C6D" width="1.5" height="2"/>
		<rect x="255.667" y="358.963" fill="#C69C6D" width="1.5" height="2"/>
		<rect x="255.667" y="365.963" fill="#C69C6D" width="1.5" height="2"/>
		<rect x="255.667" y="372.963" fill="#C69C6D" width="1.5" height="2"/>
		<rect x="255.667" y="379.963" fill="#C69C6D" width="1.5" height="2"/>
		<rect x="255.667" y="386.963" fill="#C69C6D" width="1.5" height="2"/>
		<rect x="265.667" y="330.963" fill="#C69C6D" width="1.5" height="2"/>
		<rect x="265.667" y="337.963" fill="#C69C6D" width="1.5" height="2"/>
		<rect x="265.667" y="344.963" fill="#C69C6D" width="1.5" height="2"/>
		<rect x="265.667" y="351.963" fill="#C69C6D" width="1.5" height="2"/>
		<rect x="265.667" y="358.963" fill="#C69C6D" width="1.5" height="2"/>
		<rect x="265.667" y="365.963" fill="#C69C6D" width="1.5" height="2"/>
		<rect x="265.667" y="372.963" fill="#C69C6D" width="1.5" height="2"/>
		<rect x="265.667" y="379.963" fill="#C69C6D" width="1.5" height="2"/>
		<rect x="265.667" y="386.963" fill="#C69C6D" width="1.5" height="2"/>
		<rect x="269.667" y="330.963" fill="#C69C6D" width="1.5" height="2"/>
		<rect x="269.667" y="337.963" fill="#C69C6D" width="1.5" height="2"/>
		<rect x="269.667" y="344.963" fill="#C69C6D" width="1.5" height="2"/>
		<rect x="269.667" y="351.963" fill="#C69C6D" width="1.5" height="2"/>
		<rect x="269.667" y="358.963" fill="#C69C6D" width="1.5" height="2"/>
		<rect x="269.667" y="365.963" fill="#C69C6D" width="1.5" height="2"/>
		<rect x="269.667" y="372.963" fill="#C69C6D" width="1.5" height="2"/>
		<rect x="269.667" y="379.963" fill="#C69C6D" width="1.5" height="2"/>
		<rect x="269.667" y="386.963" fill="#C69C6D" width="1.5" height="2"/>
		<rect x="273.667" y="330.963" fill="#C69C6D" width="1.5" height="2"/>
		<rect x="273.667" y="337.963" fill="#C69C6D" width="1.5" height="2"/>
		<rect x="273.667" y="344.963" fill="#C69C6D" width="1.5" height="2"/>
		<rect x="273.667" y="351.963" fill="#C69C6D" width="1.5" height="2"/>
		<rect x="273.667" y="358.963" fill="#C69C6D" width="1.5" height="2"/>
		<rect x="273.667" y="365.963" fill="#C69C6D" width="1.5" height="2"/>
		<rect x="273.667" y="372.963" fill="#C69C6D" width="1.5" height="2"/>
		<rect x="273.667" y="379.963" fill="#C69C6D" width="1.5" height="2"/>
		<rect x="273.667" y="386.963" fill="#C69C6D" width="1.5" height="2"/>
		<rect x="277.667" y="330.963" fill="#C69C6D" width="1.5" height="2"/>
		<rect x="277.667" y="337.963" fill="#C69C6D" width="1.5" height="2"/>
		<rect x="277.667" y="344.963" fill="#C69C6D" width="1.5" height="2"/>
		<rect x="277.667" y="351.963" fill="#C69C6D" width="1.5" height="2"/>
		<rect x="277.667" y="358.963" fill="#C69C6D" width="1.5" height="2"/>
		<rect x="277.667" y="365.963" fill="#C69C6D" width="1.5" height="2"/>
		<rect x="277.667" y="372.963" fill="#C69C6D" width="1.5" height="2"/>
		<rect x="277.667" y="379.963" fill="#C69C6D" width="1.5" height="2"/>
		<rect x="277.667" y="386.963" fill="#C69C6D" width="1.5" height="2"/>
	</g>
	<rect x="38.167" y="6.5" display="inline" stroke="#000000" stroke-width="3" stroke-miterlimit="10" width="322" height="200"/>
	
		<rect x="47.167" y="15.5" display="inline" fill="#333333" stroke="#FFFFFF" stroke-width="3" stroke-miterlimit="10" width="304" height="182"/>
	
		<circle display="inline" fill="#1A1A1A" stroke="#666666" stroke-width="3" stroke-miterlimit="10" cx="199.842" cy="360.258" r="8.784"/>
	<g display="inline">
		<path fill="#B3B3B3" stroke="#808080" stroke-width="3" stroke-miterlimit="10" d="M141.167,366.705
			c0,3.732-3.025,6.795-6.757,6.795h-0.486c-3.731,0-6.757-3.063-6.757-6.795v-21.486c0-3.73,3.025-6.719,6.757-6.719h0.486
			c3.731,0,6.757,2.988,6.757,6.719V366.705z"/>
		<polygon fill="#1A1A1A" points="159.667,359.963 142.667,361.963 142.667,349.963 159.667,351.963 		"/>
	</g>
	<g display="inline">
		<path fill="#B3B3B3" stroke="#808080" stroke-width="3" stroke-miterlimit="10" d="M259.167,369.705
			c0,3.732-3.025,6.795-6.757,6.795h-0.486c-3.731,0-6.757-3.063-6.757-6.795v-21.486c0-3.73,3.025-6.719,6.757-6.719h0.486
			c3.731,0,6.757,2.988,6.757,6.719V369.705z"/>
		<polygon fill="#1A1A1A" points="277.667,363.963 260.667,365.963 260.667,353.963 277.667,355.963 		"/>
	</g>
	
		<rect x="83.167" y="43.5" display="inline" fill="#FFFFFF" stroke="#808080" stroke-width="3" stroke-miterlimit="10" width="7" height="35"/>
	
		<rect x="306.167" y="136.5" display="inline" fill="#FFFFFF" stroke="#808080" stroke-width="3" stroke-miterlimit="10" width="7" height="35"/>
	
		<circle display="inline" fill="#FFFFFF" stroke="#808080" stroke-width="3" stroke-miterlimit="10" cx="241.167" cy="124.129" r="4.833"/>
	
		<rect x="171.167" y="236.5" display="inline" fill="#39B54A" stroke="#808080" stroke-width="3" stroke-miterlimit="10" width="56" height="65"/>
	<polyline display="inline" fill="none" stroke="#808080" stroke-width="3" stroke-miterlimit="10" points="73.167,209 
		73.167,259.5 162.667,259.5 	"/>
	<polyline display="inline" fill="none" stroke="#808080" stroke-width="3" stroke-miterlimit="10" points="135.667,320.5 
		193.167,320.5 193.167,307 	"/>
	<polyline display="inline" fill="none" stroke="#808080" stroke-width="3" stroke-miterlimit="10" points="253.667,320.5 
		207.167,320.5 207.167,307 	"/>
	
		<line display="inline" fill="none" stroke="#808080" stroke-width="3" stroke-miterlimit="10" x1="200.167" y1="322" x2="200.167" y2="307"/>
</g>
<g id="Layer_2">
	<rect x="4.167" y="77.5" stroke="#000000" stroke-width="3" stroke-miterlimit="10" width="392" height="244"/>
	<rect x="15.167" y="88.5" fill="#333333" stroke="#FFFFFF" stroke-width="3" stroke-miterlimit="10" width="371" height="222"/>
	<rect x="59.167" y="122.5" fill="#FFFFFF" stroke="#808080" stroke-width="3" stroke-miterlimit="10" width="8" height="43"/>
	<rect x="331.167" y="235.5" fill="#FFFFFF" stroke="#808080" stroke-width="3" stroke-miterlimit="10" width="8" height="43"/>
	<circle fill="#FFFFFF" stroke="#FFFFFF" stroke-width="3" stroke-miterlimit="10" cx="251.612" cy="220.883" r="5.892"/>
	<circle fill="none" stroke="#FFFFFF" stroke-width="2" stroke-miterlimit="10" cx="169.545" cy="293.878" r="9.622"/>
	<circle fill="none" stroke="#FFFFFF" stroke-width="2" stroke-miterlimit="10" cx="241.545" cy="130.878" r="9.622"/>
	<polyline fill="none" stroke="#FFFFFF" stroke-width="2" stroke-miterlimit="10" points="167.667,288 172.667,293.5 167.667,299 	
		"/>
	<line fill="none" stroke="#FFFFFF" stroke-width="2" stroke-miterlimit="10" x1="238.667" y1="124" x2="238.667" y2="130"/>
	<line fill="none" stroke="#FFFFFF" stroke-width="2" stroke-miterlimit="10" x1="241.667" y1="127" x2="235.667" y2="127"/>
	<circle fill="#FFFFFF" cx="243.483" cy="133.938" r="3.938"/>
	<rect x="182.917" y="95.938" fill="none" width="33.5" height="19"/>
	<text transform="matrix(1 0 0 1 182.917 109.4272)" fill="#FFFFFF" font-family="'MyriadPro-Regular'" font-size="19">3 - 4</text>
</g>
</svg>
