<?xml version="1.0" encoding="utf-8"?>
<!-- Generator: Adobe Illustrator 16.0.0, SVG Export Plug-In . SVG Version: 6.00 Build 0)  -->
<!DOCTYPE svg PUBLIC "-//W3C//DTD SVG 1.1//EN" "http://www.w3.org/Graphics/SVG/1.1/DTD/svg11.dtd">
<svg version="1.1" xmlns="http://www.w3.org/2000/svg" xmlns:xlink="http://www.w3.org/1999/xlink" x="0px" y="0px"
	 width="399.334px" height="399.333px" viewBox="0 0 399.334 399.333" enable-background="new 0 0 399.334 399.333"
	 xml:space="preserve">
<g id="Layer_1" display="none">
	<g display="inline">
		<rect x="111.167" y="326.5" fill="#FFF9F3" stroke="#C69C6D" stroke-miterlimit="10" width="175" height="67"/>
		<rect x="115.667" y="330.963" fill="#C69C6D" width="1.5" height="2"/>
		<rect x="115.667" y="337.963" fill="#C69C6D" width="1.5" height="2"/>
		<rect x="115.667" y="344.963" fill="#C69C6D" width="1.5" height="2"/>
		<rect x="115.667" y="351.963" fill="#C69C6D" width="1.5" height="2"/>
		<rect x="115.667" y="358.963" fill="#C69C6D" width="1.5" height="2"/>
		<rect x="115.667" y="365.963" fill="#C69C6D" width="1.5" height="2"/>
		<rect x="115.667" y="372.963" fill="#C69C6D" width="1.5" height="2"/>
		<rect x="115.667" y="379.963" fill="#C69C6D" width="1.5" height="2"/>
		<rect x="115.667" y="386.963" fill="#C69C6D" width="1.5" height="2"/>
		<rect x="119.667" y="330.963" fill="#C69C6D" width="1.5" height="2"/>
		<rect x="119.667" y="337.963" fill="#C69C6D" width="1.5" height="2"/>
		<rect x="119.667" y="344.963" fill="#C69C6D" width="1.5" height="2"/>
		<rect x="119.667" y="351.963" fill="#C69C6D" width="1.5" height="2"/>
		<rect x="119.667" y="358.963" fill="#C69C6D" width="1.5" height="2"/>
		<rect x="119.667" y="365.963" fill="#C69C6D" width="1.5" height="2"/>
		<rect x="119.667" y="372.963" fill="#C69C6D" width="1.5" height="2"/>
		<rect x="119.667" y="379.963" fill="#C69C6D" width="1.5" height="2"/>
		<rect x="119.667" y="386.963" fill="#C69C6D" width="1.5" height="2"/>
		<rect x="123.667" y="330.963" fill="#C69C6D" width="1.5" height="2"/>
		<rect x="123.667" y="337.963" fill="#C69C6D" width="1.5" height="2"/>
		<rect x="123.667" y="344.963" fill="#C69C6D" width="1.5" height="2"/>
		<rect x="123.667" y="351.963" fill="#C69C6D" width="1.5" height="2"/>
		<rect x="123.667" y="358.963" fill="#C69C6D" width="1.5" height="2"/>
		<rect x="123.667" y="365.963" fill="#C69C6D" width="1.5" height="2"/>
		<rect x="123.667" y="372.963" fill="#C69C6D" width="1.5" height="2"/>
		<rect x="123.667" y="379.963" fill="#C69C6D" width="1.5" height="2"/>
		<rect x="123.667" y="386.963" fill="#C69C6D" width="1.5" height="2"/>
		<rect x="127.667" y="330.963" fill="#C69C6D" width="1.5" height="2"/>
		<rect x="127.667" y="337.963" fill="#C69C6D" width="1.5" height="2"/>
		<rect x="127.667" y="344.963" fill="#C69C6D" width="1.5" height="2"/>
		<rect x="127.667" y="351.963" fill="#C69C6D" width="1.5" height="2"/>
		<rect x="127.667" y="358.963" fill="#C69C6D" width="1.5" height="2"/>
		<rect x="127.667" y="365.963" fill="#C69C6D" width="1.5" height="2"/>
		<rect x="127.667" y="372.963" fill="#C69C6D" width="1.5" height="2"/>
		<rect x="127.667" y="379.963" fill="#C69C6D" width="1.5" height="2"/>
		<rect x="127.667" y="386.963" fill="#C69C6D" width="1.5" height="2"/>
		<rect x="131.667" y="330.963" fill="#C69C6D" width="1.5" height="2"/>
		<rect x="131.667" y="337.963" fill="#C69C6D" width="1.5" height="2"/>
		<rect x="131.667" y="344.963" fill="#C69C6D" width="1.5" height="2"/>
		<rect x="131.667" y="351.963" fill="#C69C6D" width="1.5" height="2"/>
		<rect x="131.667" y="358.963" fill="#C69C6D" width="1.5" height="2"/>
		<rect x="131.667" y="365.963" fill="#C69C6D" width="1.5" height="2"/>
		<rect x="131.667" y="372.963" fill="#C69C6D" width="1.5" height="2"/>
		<rect x="131.667" y="379.963" fill="#C69C6D" width="1.5" height="2"/>
		<rect x="131.667" y="386.963" fill="#C69C6D" width="1.5" height="2"/>
		<rect x="135.667" y="330.963" fill="#C69C6D" width="1.5" height="2"/>
		<rect x="135.667" y="337.963" fill="#C69C6D" width="1.5" height="2"/>
		<rect x="135.667" y="344.963" fill="#C69C6D" width="1.5" height="2"/>
		<rect x="135.667" y="351.963" fill="#C69C6D" width="1.5" height="2"/>
		<rect x="135.667" y="358.963" fill="#C69C6D" width="1.5" height="2"/>
		<rect x="135.667" y="365.963" fill="#C69C6D" width="1.5" height="2"/>
		<rect x="135.667" y="372.963" fill="#C69C6D" width="1.5" height="2"/>
		<rect x="135.667" y="379.963" fill="#C69C6D" width="1.5" height="2"/>
		<rect x="135.667" y="386.963" fill="#C69C6D" width="1.5" height="2"/>
		<rect x="145.667" y="330.963" fill="#C69C6D" width="1.5" height="2"/>
		<rect x="145.667" y="337.963" fill="#C69C6D" width="1.5" height="2"/>
		<rect x="145.667" y="344.963" fill="#C69C6D" width="1.5" height="2"/>
		<rect x="145.667" y="351.963" fill="#C69C6D" width="1.5" height="2"/>
		<rect x="145.667" y="358.963" fill="#C69C6D" width="1.5" height="2"/>
		<rect x="145.667" y="365.963" fill="#C69C6D" width="1.5" height="2"/>
		<rect x="145.667" y="372.963" fill="#C69C6D" width="1.5" height="2"/>
		<rect x="145.667" y="379.963" fill="#C69C6D" width="1.5" height="2"/>
		<rect x="145.667" y="386.963" fill="#C69C6D" width="1.5" height="2"/>
		<rect x="149.667" y="330.963" fill="#C69C6D" width="1.5" height="2"/>
		<rect x="149.667" y="337.963" fill="#C69C6D" width="1.5" height="2"/>
		<rect x="149.667" y="344.963" fill="#C69C6D" width="1.5" height="2"/>
		<rect x="149.667" y="351.963" fill="#C69C6D" width="1.5" height="2"/>
		<rect x="149.667" y="358.963" fill="#C69C6D" width="1.5" height="2"/>
		<rect x="149.667" y="365.963" fill="#C69C6D" width="1.5" height="2"/>
		<rect x="149.667" y="372.963" fill="#C69C6D" width="1.5" height="2"/>
		<rect x="149.667" y="379.963" fill="#C69C6D" width="1.5" height="2"/>
		<rect x="149.667" y="386.963" fill="#C69C6D" width="1.5" height="2"/>
		<rect x="153.667" y="330.963" fill="#C69C6D" width="1.5" height="2"/>
		<rect x="153.667" y="337.963" fill="#C69C6D" width="1.5" height="2"/>
		<rect x="153.667" y="344.963" fill="#C69C6D" width="1.5" height="2"/>
		<rect x="153.667" y="351.963" fill="#C69C6D" width="1.5" height="2"/>
		<rect x="153.667" y="358.963" fill="#C69C6D" width="1.5" height="2"/>
		<rect x="153.667" y="365.963" fill="#C69C6D" width="1.5" height="2"/>
		<rect x="153.667" y="372.963" fill="#C69C6D" width="1.5" height="2"/>
		<rect x="153.667" y="379.963" fill="#C69C6D" width="1.5" height="2"/>
		<rect x="153.667" y="386.963" fill="#C69C6D" width="1.5" height="2"/>
		<rect x="157.667" y="330.963" fill="#C69C6D" width="1.5" height="2"/>
		<rect x="157.667" y="337.963" fill="#C69C6D" width="1.5" height="2"/>
		<rect x="157.667" y="344.963" fill="#C69C6D" width="1.5" height="2"/>
		<rect x="157.667" y="351.963" fill="#C69C6D" width="1.5" height="2"/>
		<rect x="157.667" y="358.963" fill="#C69C6D" width="1.5" height="2"/>
		<rect x="157.667" y="365.963" fill="#C69C6D" width="1.5" height="2"/>
		<rect x="157.667" y="372.963" fill="#C69C6D" width="1.5" height="2"/>
		<rect x="157.667" y="379.963" fill="#C69C6D" width="1.5" height="2"/>
		<rect x="157.667" y="386.963" fill="#C69C6D" width="1.5" height="2"/>
		<rect x="161.667" y="330.963" fill="#C69C6D" width="1.5" height="2"/>
		<rect x="161.667" y="337.963" fill="#C69C6D" width="1.5" height="2"/>
		<rect x="161.667" y="344.963" fill="#C69C6D" width="1.5" height="2"/>
		<rect x="161.667" y="351.963" fill="#C69C6D" width="1.5" height="2"/>
		<rect x="161.667" y="358.963" fill="#C69C6D" width="1.5" height="2"/>
		<rect x="161.667" y="365.963" fill="#C69C6D" width="1.5" height="2"/>
		<rect x="161.667" y="372.963" fill="#C69C6D" width="1.5" height="2"/>
		<rect x="161.667" y="379.963" fill="#C69C6D" width="1.5" height="2"/>
		<rect x="161.667" y="386.963" fill="#C69C6D" width="1.5" height="2"/>
		<rect x="165.667" y="330.963" fill="#C69C6D" width="1.5" height="2"/>
		<rect x="165.667" y="337.963" fill="#C69C6D" width="1.5" height="2"/>
		<rect x="165.667" y="344.963" fill="#C69C6D" width="1.5" height="2"/>
		<rect x="165.667" y="351.963" fill="#C69C6D" width="1.5" height="2"/>
		<rect x="165.667" y="358.963" fill="#C69C6D" width="1.5" height="2"/>
		<rect x="165.667" y="365.963" fill="#C69C6D" width="1.5" height="2"/>
		<rect x="165.667" y="372.963" fill="#C69C6D" width="1.5" height="2"/>
		<rect x="165.667" y="379.963" fill="#C69C6D" width="1.5" height="2"/>
		<rect x="165.667" y="386.963" fill="#C69C6D" width="1.5" height="2"/>
		<rect x="175.667" y="330.963" fill="#C69C6D" width="1.5" height="2"/>
		<rect x="175.667" y="337.963" fill="#C69C6D" width="1.5" height="2"/>
		<rect x="175.667" y="344.963" fill="#C69C6D" width="1.5" height="2"/>
		<rect x="175.667" y="351.963" fill="#C69C6D" width="1.5" height="2"/>
		<rect x="175.667" y="358.963" fill="#C69C6D" width="1.5" height="2"/>
		<rect x="175.667" y="365.963" fill="#C69C6D" width="1.5" height="2"/>
		<rect x="175.667" y="372.963" fill="#C69C6D" width="1.5" height="2"/>
		<rect x="175.667" y="379.963" fill="#C69C6D" width="1.5" height="2"/>
		<rect x="175.667" y="386.963" fill="#C69C6D" width="1.5" height="2"/>
		<rect x="179.667" y="330.963" fill="#C69C6D" width="1.5" height="2"/>
		<rect x="179.667" y="337.963" fill="#C69C6D" width="1.5" height="2"/>
		<rect x="179.667" y="344.963" fill="#C69C6D" width="1.5" height="2"/>
		<rect x="179.667" y="351.963" fill="#C69C6D" width="1.5" height="2"/>
		<rect x="179.667" y="358.963" fill="#C69C6D" width="1.5" height="2"/>
		<rect x="179.667" y="365.963" fill="#C69C6D" width="1.5" height="2"/>
		<rect x="179.667" y="372.963" fill="#C69C6D" width="1.5" height="2"/>
		<rect x="179.667" y="379.963" fill="#C69C6D" width="1.5" height="2"/>
		<rect x="179.667" y="386.963" fill="#C69C6D" width="1.5" height="2"/>
		<rect x="183.667" y="330.963" fill="#C69C6D" width="1.5" height="2"/>
		<rect x="183.667" y="337.963" fill="#C69C6D" width="1.5" height="2"/>
		<rect x="183.667" y="344.963" fill="#C69C6D" width="1.5" height="2"/>
		<rect x="183.667" y="351.963" fill="#C69C6D" width="1.5" height="2"/>
		<rect x="183.667" y="358.963" fill="#C69C6D" width="1.5" height="2"/>
		<rect x="183.667" y="365.963" fill="#C69C6D" width="1.5" height="2"/>
		<rect x="183.667" y="372.963" fill="#C69C6D" width="1.5" height="2"/>
		<rect x="183.667" y="379.963" fill="#C69C6D" width="1.5" height="2"/>
		<rect x="183.667" y="386.963" fill="#C69C6D" width="1.5" height="2"/>
		<rect x="187.667" y="330.963" fill="#C69C6D" width="1.5" height="2"/>
		<rect x="187.667" y="337.963" fill="#C69C6D" width="1.5" height="2"/>
		<rect x="187.667" y="344.963" fill="#C69C6D" width="1.5" height="2"/>
		<rect x="187.667" y="351.963" fill="#C69C6D" width="1.5" height="2"/>
		<rect x="187.667" y="358.963" fill="#C69C6D" width="1.5" height="2"/>
		<rect x="187.667" y="365.963" fill="#C69C6D" width="1.5" height="2"/>
		<rect x="187.667" y="372.963" fill="#C69C6D" width="1.5" height="2"/>
		<rect x="187.667" y="379.963" fill="#C69C6D" width="1.5" height="2"/>
		<rect x="187.667" y="386.963" fill="#C69C6D" width="1.5" height="2"/>
		<rect x="191.667" y="330.963" fill="#C69C6D" width="1.5" height="2"/>
		<rect x="191.667" y="337.963" fill="#C69C6D" width="1.5" height="2"/>
		<rect x="191.667" y="344.963" fill="#C69C6D" width="1.5" height="2"/>
		<rect x="191.667" y="351.963" fill="#C69C6D" width="1.5" height="2"/>
		<rect x="191.667" y="358.963" fill="#C69C6D" width="1.5" height="2"/>
		<rect x="191.667" y="365.963" fill="#C69C6D" width="1.5" height="2"/>
		<rect x="191.667" y="372.963" fill="#C69C6D" width="1.5" height="2"/>
		<rect x="191.667" y="379.963" fill="#C69C6D" width="1.5" height="2"/>
		<rect x="191.667" y="386.963" fill="#C69C6D" width="1.5" height="2"/>
		<rect x="195.667" y="330.963" fill="#C69C6D" width="1.5" height="2"/>
		<rect x="195.667" y="337.963" fill="#C69C6D" width="1.5" height="2"/>
		<rect x="195.667" y="344.963" fill="#C69C6D" width="1.5" height="2"/>
		<rect x="195.667" y="351.963" fill="#C69C6D" width="1.5" height="2"/>
		<rect x="195.667" y="358.963" fill="#C69C6D" width="1.5" height="2"/>
		<rect x="195.667" y="365.963" fill="#C69C6D" width="1.5" height="2"/>
		<rect x="195.667" y="372.963" fill="#C69C6D" width="1.5" height="2"/>
		<rect x="195.667" y="379.963" fill="#C69C6D" width="1.5" height="2"/>
		<rect x="195.667" y="386.963" fill="#C69C6D" width="1.5" height="2"/>
		<rect x="205.667" y="330.963" fill="#C69C6D" width="1.5" height="2"/>
		<rect x="205.667" y="337.963" fill="#C69C6D" width="1.5" height="2"/>
		<rect x="205.667" y="344.963" fill="#C69C6D" width="1.5" height="2"/>
		<rect x="205.667" y="351.963" fill="#C69C6D" width="1.5" height="2"/>
		<rect x="205.667" y="358.963" fill="#C69C6D" width="1.5" height="2"/>
		<rect x="205.667" y="365.963" fill="#C69C6D" width="1.5" height="2"/>
		<rect x="205.667" y="372.963" fill="#C69C6D" width="1.5" height="2"/>
		<rect x="205.667" y="379.963" fill="#C69C6D" width="1.5" height="2"/>
		<rect x="205.667" y="386.963" fill="#C69C6D" width="1.5" height="2"/>
		<rect x="209.667" y="330.963" fill="#C69C6D" width="1.5" height="2"/>
		<rect x="209.667" y="337.963" fill="#C69C6D" width="1.5" height="2"/>
		<rect x="209.667" y="344.963" fill="#C69C6D" width="1.5" height="2"/>
		<rect x="209.667" y="351.963" fill="#C69C6D" width="1.5" height="2"/>
		<rect x="209.667" y="358.963" fill="#C69C6D" width="1.5" height="2"/>
		<rect x="209.667" y="365.963" fill="#C69C6D" width="1.5" height="2"/>
		<rect x="209.667" y="372.963" fill="#C69C6D" width="1.5" height="2"/>
		<rect x="209.667" y="379.963" fill="#C69C6D" width="1.5" height="2"/>
		<rect x="209.667" y="386.963" fill="#C69C6D" width="1.5" height="2"/>
		<rect x="213.667" y="330.963" fill="#C69C6D" width="1.5" height="2"/>
		<rect x="213.667" y="337.963" fill="#C69C6D" width="1.5" height="2"/>
		<rect x="213.667" y="344.963" fill="#C69C6D" width="1.5" height="2"/>
		<rect x="213.667" y="351.963" fill="#C69C6D" width="1.5" height="2"/>
		<rect x="213.667" y="358.963" fill="#C69C6D" width="1.5" height="2"/>
		<rect x="213.667" y="365.963" fill="#C69C6D" width="1.5" height="2"/>
		<rect x="213.667" y="372.963" fill="#C69C6D" width="1.5" height="2"/>
		<rect x="213.667" y="379.963" fill="#C69C6D" width="1.5" height="2"/>
		<rect x="213.667" y="386.963" fill="#C69C6D" width="1.5" height="2"/>
		<rect x="217.667" y="330.963" fill="#C69C6D" width="1.5" height="2"/>
		<rect x="217.667" y="337.963" fill="#C69C6D" width="1.5" height="2"/>
		<rect x="217.667" y="344.963" fill="#C69C6D" width="1.5" height="2"/>
		<rect x="217.667" y="351.963" fill="#C69C6D" width="1.5" height="2"/>
		<rect x="217.667" y="358.963" fill="#C69C6D" width="1.5" height="2"/>
		<rect x="217.667" y="365.963" fill="#C69C6D" width="1.5" height="2"/>
		<rect x="217.667" y="372.963" fill="#C69C6D" width="1.5" height="2"/>
		<rect x="217.667" y="379.963" fill="#C69C6D" width="1.5" height="2"/>
		<rect x="217.667" y="386.963" fill="#C69C6D" width="1.5" height="2"/>
		<rect x="221.667" y="330.963" fill="#C69C6D" width="1.5" height="2"/>
		<rect x="221.667" y="337.963" fill="#C69C6D" width="1.5" height="2"/>
		<rect x="221.667" y="344.963" fill="#C69C6D" width="1.5" height="2"/>
		<rect x="221.667" y="351.963" fill="#C69C6D" width="1.5" height="2"/>
		<rect x="221.667" y="358.963" fill="#C69C6D" width="1.5" height="2"/>
		<rect x="221.667" y="365.963" fill="#C69C6D" width="1.5" height="2"/>
		<rect x="221.667" y="372.963" fill="#C69C6D" width="1.5" height="2"/>
		<rect x="221.667" y="379.963" fill="#C69C6D" width="1.5" height="2"/>
		<rect x="221.667" y="386.963" fill="#C69C6D" width="1.5" height="2"/>
		<rect x="225.667" y="330.963" fill="#C69C6D" width="1.5" height="2"/>
		<rect x="225.667" y="337.963" fill="#C69C6D" width="1.5" height="2"/>
		<rect x="225.667" y="344.963" fill="#C69C6D" width="1.5" height="2"/>
		<rect x="225.667" y="351.963" fill="#C69C6D" width="1.5" height="2"/>
		<rect x="225.667" y="358.963" fill="#C69C6D" width="1.5" height="2"/>
		<rect x="225.667" y="365.963" fill="#C69C6D" width="1.5" height="2"/>
		<rect x="225.667" y="372.963" fill="#C69C6D" width="1.5" height="2"/>
		<rect x="225.667" y="379.963" fill="#C69C6D" width="1.5" height="2"/>
		<rect x="225.667" y="386.963" fill="#C69C6D" width="1.5" height="2"/>
		<rect x="235.667" y="330.963" fill="#C69C6D" width="1.5" height="2"/>
		<rect x="235.667" y="337.963" fill="#C69C6D" width="1.5" height="2"/>
		<rect x="235.667" y="344.963" fill="#C69C6D" width="1.5" height="2"/>
		<rect x="235.667" y="351.963" fill="#C69C6D" width="1.5" height="2"/>
		<rect x="235.667" y="358.963" fill="#C69C6D" width="1.5" height="2"/>
		<rect x="235.667" y="365.963" fill="#C69C6D" width="1.5" height="2"/>
		<rect x="235.667" y="372.963" fill="#C69C6D" width="1.5" height="2"/>
		<rect x="235.667" y="379.963" fill="#C69C6D" width="1.5" height="2"/>
		<rect x="235.667" y="386.963" fill="#C69C6D" width="1.5" height="2"/>
		<rect x="239.667" y="330.963" fill="#C69C6D" width="1.5" height="2"/>
		<rect x="239.667" y="337.963" fill="#C69C6D" width="1.5" height="2"/>
		<rect x="239.667" y="344.963" fill="#C69C6D" width="1.5" height="2"/>
		<rect x="239.667" y="351.963" fill="#C69C6D" width="1.5" height="2"/>
		<rect x="239.667" y="358.963" fill="#C69C6D" width="1.5" height="2"/>
		<rect x="239.667" y="365.963" fill="#C69C6D" width="1.5" height="2"/>
		<rect x="239.667" y="372.963" fill="#C69C6D" width="1.5" height="2"/>
		<rect x="239.667" y="379.963" fill="#C69C6D" width="1.5" height="2"/>
		<rect x="239.667" y="386.963" fill="#C69C6D" width="1.5" height="2"/>
		<rect x="243.667" y="330.963" fill="#C69C6D" width="1.5" height="2"/>
		<rect x="243.667" y="337.963" fill="#C69C6D" width="1.5" height="2"/>
		<rect x="243.667" y="344.963" fill="#C69C6D" width="1.5" height="2"/>
		<rect x="243.667" y="351.963" fill="#C69C6D" width="1.5" height="2"/>
		<rect x="243.667" y="358.963" fill="#C69C6D" width="1.5" height="2"/>
		<rect x="243.667" y="365.963" fill="#C69C6D" width="1.5" height="2"/>
		<rect x="243.667" y="372.963" fill="#C69C6D" width="1.5" height="2"/>
		<rect x="243.667" y="379.963" fill="#C69C6D" width="1.5" height="2"/>
		<rect x="243.667" y="386.963" fill="#C69C6D" width="1.5" height="2"/>
		<rect x="247.667" y="330.963" fill="#C69C6D" width="1.5" height="2"/>
		<rect x="247.667" y="337.963" fill="#C69C6D" width="1.5" height="2"/>
		<rect x="247.667" y="344.963" fill="#C69C6D" width="1.5" height="2"/>
		<rect x="247.667" y="351.963" fill="#C69C6D" width="1.5" height="2"/>
		<rect x="247.667" y="358.963" fill="#C69C6D" width="1.5" height="2"/>
		<rect x="247.667" y="365.963" fill="#C69C6D" width="1.5" height="2"/>
		<rect x="247.667" y="372.963" fill="#C69C6D" width="1.5" height="2"/>
		<rect x="247.667" y="379.963" fill="#C69C6D" width="1.5" height="2"/>
		<rect x="247.667" y="386.963" fill="#C69C6D" width="1.5" height="2"/>
		<rect x="251.667" y="330.963" fill="#C69C6D" width="1.5" height="2"/>
		<rect x="251.667" y="337.963" fill="#C69C6D" width="1.5" height="2"/>
		<rect x="251.667" y="344.963" fill="#C69C6D" width="1.5" height="2"/>
		<rect x="251.667" y="351.963" fill="#C69C6D" width="1.5" height="2"/>
		<rect x="251.667" y="358.963" fill="#C69C6D" width="1.5" height="2"/>
		<rect x="251.667" y="365.963" fill="#C69C6D" width="1.5" height="2"/>
		<rect x="251.667" y="372.963" fill="#C69C6D" width="1.5" height="2"/>
		<rect x="251.667" y="379.963" fill="#C69C6D" width="1.5" height="2"/>
		<rect x="251.667" y="386.963" fill="#C69C6D" width="1.5" height="2"/>
		<rect x="255.667" y="330.963" fill="#C69C6D" width="1.5" height="2"/>
		<rect x="255.667" y="337.963" fill="#C69C6D" width="1.5" height="2"/>
		<rect x="255.667" y="344.963" fill="#C69C6D" width="1.5" height="2"/>
		<rect x="255.667" y="351.963" fill="#C69C6D" width="1.5" height="2"/>
		<rect x="255.667" y="358.963" fill="#C69C6D" width="1.5" height="2"/>
		<rect x="255.667" y="365.963" fill="#C69C6D" width="1.5" height="2"/>
		<rect x="255.667" y="372.963" fill="#C69C6D" width="1.5" height="2"/>
		<rect x="255.667" y="379.963" fill="#C69C6D" width="1.5" height="2"/>
		<rect x="255.667" y="386.963" fill="#C69C6D" width="1.5" height="2"/>
		<rect x="265.667" y="330.963" fill="#C69C6D" width="1.5" height="2"/>
		<rect x="265.667" y="337.963" fill="#C69C6D" width="1.5" height="2"/>
		<rect x="265.667" y="344.963" fill="#C69C6D" width="1.5" height="2"/>
		<rect x="265.667" y="351.963" fill="#C69C6D" width="1.5" height="2"/>
		<rect x="265.667" y="358.963" fill="#C69C6D" width="1.5" height="2"/>
		<rect x="265.667" y="365.963" fill="#C69C6D" width="1.5" height="2"/>
		<rect x="265.667" y="372.963" fill="#C69C6D" width="1.5" height="2"/>
		<rect x="265.667" y="379.963" fill="#C69C6D" width="1.5" height="2"/>
		<rect x="265.667" y="386.963" fill="#C69C6D" width="1.5" height="2"/>
		<rect x="269.667" y="330.963" fill="#C69C6D" width="1.5" height="2"/>
		<rect x="269.667" y="337.963" fill="#C69C6D" width="1.5" height="2"/>
		<rect x="269.667" y="344.963" fill="#C69C6D" width="1.5" height="2"/>
		<rect x="269.667" y="351.963" fill="#C69C6D" width="1.5" height="2"/>
		<rect x="269.667" y="358.963" fill="#C69C6D" width="1.5" height="2"/>
		<rect x="269.667" y="365.963" fill="#C69C6D" width="1.5" height="2"/>
		<rect x="269.667" y="372.963" fill="#C69C6D" width="1.5" height="2"/>
		<rect x="269.667" y="379.963" fill="#C69C6D" width="1.5" height="2"/>
		<rect x="269.667" y="386.963" fill="#C69C6D" width="1.5" height="2"/>
		<rect x="273.667" y="330.963" fill="#C69C6D" width="1.5" height="2"/>
		<rect x="273.667" y="337.963" fill="#C69C6D" width="1.5" height="2"/>
		<rect x="273.667" y="344.963" fill="#C69C6D" width="1.5" height="2"/>
		<rect x="273.667" y="351.963" fill="#C69C6D" width="1.5" height="2"/>
		<rect x="273.667" y="358.963" fill="#C69C6D" width="1.5" height="2"/>
		<rect x="273.667" y="365.963" fill="#C69C6D" width="1.5" height="2"/>
		<rect x="273.667" y="372.963" fill="#C69C6D" width="1.5" height="2"/>
		<rect x="273.667" y="379.963" fill="#C69C6D" width="1.5" height="2"/>
		<rect x="273.667" y="386.963" fill="#C69C6D" width="1.5" height="2"/>
		<rect x="277.667" y="330.963" fill="#C69C6D" width="1.5" height="2"/>
		<rect x="277.667" y="337.963" fill="#C69C6D" width="1.5" height="2"/>
		<rect x="277.667" y="344.963" fill="#C69C6D" width="1.5" height="2"/>
		<rect x="277.667" y="351.963" fill="#C69C6D" width="1.5" height="2"/>
		<rect x="277.667" y="358.963" fill="#C69C6D" width="1.5" height="2"/>
		<rect x="277.667" y="365.963" fill="#C69C6D" width="1.5" height="2"/>
		<rect x="277.667" y="372.963" fill="#C69C6D" width="1.5" height="2"/>
		<rect x="277.667" y="379.963" fill="#C69C6D" width="1.5" height="2"/>
		<rect x="277.667" y="386.963" fill="#C69C6D" width="1.5" height="2"/>
	</g>
	<rect x="38.167" y="6.5" display="inline" stroke="#000000" stroke-width="3" stroke-miterlimit="10" width="322" height="200"/>
	
		<rect x="47.167" y="15.5" display="inline" fill="#333333" stroke="#FFFFFF" stroke-width="3" stroke-miterlimit="10" width="304" height="182"/>
	
		<circle display="inline" fill="#1A1A1A" stroke="#666666" stroke-width="3" stroke-miterlimit="10" cx="199.842" cy="360.258" r="8.784"/>
	<g display="inline">
		<path fill="#B3B3B3" stroke="#808080" stroke-width="3" stroke-miterlimit="10" d="M141.167,366.705
			c0,3.732-3.025,6.795-6.757,6.795h-0.486c-3.731,0-6.757-3.063-6.757-6.795v-21.486c0-3.73,3.025-6.719,6.757-6.719h0.486
			c3.731,0,6.757,2.988,6.757,6.719V366.705z"/>
		<polygon fill="#1A1A1A" points="159.667,359.963 142.667,361.963 142.667,349.963 159.667,351.963 		"/>
	</g>
	<g display="inline">
		<path fill="#B3B3B3" stroke="#808080" stroke-width="3" stroke-miterlimit="10" d="M259.167,369.705
			c0,3.732-3.025,6.795-6.757,6.795h-0.486c-3.731,0-6.757-3.063-6.757-6.795v-21.486c0-3.73,3.025-6.719,6.757-6.719h0.486
			c3.731,0,6.757,2.988,6.757,6.719V369.705z"/>
		<polygon fill="#1A1A1A" points="277.667,363.963 260.667,365.963 260.667,353.963 277.667,355.963 		"/>
	</g>
	
		<rect x="83.167" y="43.5" display="inline" fill="#FFFFFF" stroke="#808080" stroke-width="3" stroke-miterlimit="10" width="7" height="35"/>
	
		<rect x="306.167" y="136.5" display="inline" fill="#FFFFFF" stroke="#808080" stroke-width="3" stroke-miterlimit="10" width="7" height="35"/>
	
		<circle display="inline" fill="#FFFFFF" stroke="#808080" stroke-width="3" stroke-miterlimit="10" cx="241.167" cy="124.129" r="4.833"/>
	
		<rect x="171.167" y="236.5" display="inline" fill="#39B54A" stroke="#808080" stroke-width="3" stroke-miterlimit="10" width="56" height="65"/>
	<polyline display="inline" fill="none" stroke="#808080" stroke-width="3" stroke-miterlimit="10" points="73.167,209 
		73.167,259.5 162.667,259.5 	"/>
	<polyline display="inline" fill="none" stroke="#808080" stroke-width="3" stroke-miterlimit="10" points="135.667,320.5 
		193.167,320.5 193.167,307 	"/>
	<polyline display="inline" fill="none" stroke="#808080" stroke-width="3" stroke-miterlimit="10" points="253.667,320.5 
		207.167,320.5 207.167,307 	"/>
	
		<line display="inline" fill="none" stroke="#808080" stroke-width="3" stroke-miterlimit="10" x1="200.167" y1="322" x2="200.167" y2="307"/>
</g>
<g id="Layer_2" display="none">
	<rect x="4.167" y="77.5" display="inline" stroke="#000000" stroke-width="3" stroke-miterlimit="10" width="392" height="244"/>
	
		<rect x="15.167" y="88.5" display="inline" fill="#333333" stroke="#FFFFFF" stroke-width="3" stroke-miterlimit="10" width="371" height="222"/>
	
		<rect x="59.167" y="122.5" display="inline" fill="#FFFFFF" stroke="#808080" stroke-width="3" stroke-miterlimit="10" width="8" height="43"/>
	
		<rect x="331.167" y="235.5" display="inline" fill="#FFFFFF" stroke="#808080" stroke-width="3" stroke-miterlimit="10" width="8" height="43"/>
	
		<circle display="inline" fill="#FFFFFF" stroke="#FFFFFF" stroke-width="3" stroke-miterlimit="10" cx="251.612" cy="220.883" r="5.892"/>
	
		<circle display="inline" fill="none" stroke="#FFFFFF" stroke-width="2" stroke-miterlimit="10" cx="169.545" cy="293.878" r="9.622"/>
	
		<circle display="inline" fill="none" stroke="#FFFFFF" stroke-width="2" stroke-miterlimit="10" cx="241.545" cy="130.878" r="9.622"/>
	<polyline display="inline" fill="none" stroke="#FFFFFF" stroke-width="2" stroke-miterlimit="10" points="167.667,288 
		172.667,293.5 167.667,299 	"/>
	
		<line display="inline" fill="none" stroke="#FFFFFF" stroke-width="2" stroke-miterlimit="10" x1="238.667" y1="124" x2="238.667" y2="130"/>
	
		<line display="inline" fill="none" stroke="#FFFFFF" stroke-width="2" stroke-miterlimit="10" x1="241.667" y1="127" x2="235.667" y2="127"/>
	<circle display="inline" fill="#FFFFFF" cx="243.483" cy="133.938" r="3.938"/>
	<rect x="182.917" y="95.938" display="inline" fill="none" width="33.5" height="19"/>
	
		<text transform="matrix(1 0 0 1 182.917 109.4272)" display="inline" fill="#FFFFFF" font-family="'MyriadPro-Regular'" font-size="19">3 - 4</text>
</g>
<g id="Layer_3">
	<g>
		<g>
			<rect x="23.167" y="132.5" fill="#FFF9F3" stroke="#C69C6D" stroke-miterlimit="10" width="353" height="135"/>
			<rect x="32.667" y="141" fill="#C69C6D" width="3" height="5"/>
			<rect x="32.667" y="156" fill="#C69C6D" width="3" height="4"/>
			<rect x="32.667" y="170" fill="#C69C6D" width="3" height="4"/>
			<rect x="32.667" y="184" fill="#C69C6D" width="3" height="4"/>
			<rect x="32.667" y="198" fill="#C69C6D" width="3" height="4"/>
			<rect x="32.667" y="212" fill="#C69C6D" width="3" height="4"/>
			<rect x="32.667" y="226" fill="#C69C6D" width="3" height="4"/>
			<rect x="32.667" y="240" fill="#C69C6D" width="3" height="4"/>
			<rect x="32.667" y="254" fill="#C69C6D" width="3" height="4"/>
			<rect x="40.667" y="141" fill="#C69C6D" width="3" height="5"/>
			<rect x="40.667" y="156" fill="#C69C6D" width="3" height="4"/>
			<rect x="40.667" y="170" fill="#C69C6D" width="3" height="4"/>
			<rect x="40.667" y="184" fill="#C69C6D" width="3" height="4"/>
			<rect x="40.667" y="198" fill="#C69C6D" width="3" height="4"/>
			<rect x="40.667" y="212" fill="#C69C6D" width="3" height="4"/>
			<rect x="40.667" y="226" fill="#C69C6D" width="3" height="4"/>
			<rect x="40.667" y="240" fill="#C69C6D" width="3" height="4"/>
			<rect x="40.667" y="254" fill="#C69C6D" width="3" height="4"/>
			<rect x="48.667" y="141" fill="#C69C6D" width="3" height="5"/>
			<rect x="48.667" y="156" fill="#C69C6D" width="3" height="4"/>
			<rect x="48.667" y="170" fill="#C69C6D" width="3" height="4"/>
			<rect x="48.667" y="184" fill="#C69C6D" width="3" height="4"/>
			<rect x="48.667" y="198" fill="#C69C6D" width="3" height="4"/>
			<rect x="48.667" y="212" fill="#C69C6D" width="3" height="4"/>
			<rect x="48.667" y="226" fill="#C69C6D" width="3" height="4"/>
			<rect x="48.667" y="240" fill="#C69C6D" width="3" height="4"/>
			<rect x="48.667" y="254" fill="#C69C6D" width="3" height="4"/>
			<rect x="56.667" y="141" fill="#C69C6D" width="3" height="5"/>
			<rect x="56.667" y="156" fill="#C69C6D" width="3" height="4"/>
			<rect x="56.667" y="170" fill="#C69C6D" width="3" height="4"/>
			<rect x="56.667" y="184" fill="#C69C6D" width="3" height="4"/>
			<rect x="56.667" y="198" fill="#C69C6D" width="3" height="4"/>
			<rect x="56.667" y="212" fill="#C69C6D" width="3" height="4"/>
			<rect x="56.667" y="226" fill="#C69C6D" width="3" height="4"/>
			<rect x="56.667" y="240" fill="#C69C6D" width="3" height="4"/>
			<rect x="56.667" y="254" fill="#C69C6D" width="3" height="4"/>
			<rect x="64.667" y="141" fill="#C69C6D" width="3" height="5"/>
			<rect x="64.667" y="156" fill="#C69C6D" width="3" height="4"/>
			<rect x="64.667" y="170" fill="#C69C6D" width="3" height="4"/>
			<rect x="64.667" y="184" fill="#C69C6D" width="3" height="4"/>
			<rect x="64.667" y="198" fill="#C69C6D" width="3" height="4"/>
			<rect x="64.667" y="212" fill="#C69C6D" width="3" height="4"/>
			<rect x="64.667" y="226" fill="#C69C6D" width="3" height="4"/>
			<rect x="64.667" y="240" fill="#C69C6D" width="3" height="4"/>
			<rect x="64.667" y="254" fill="#C69C6D" width="3" height="4"/>
			<rect x="72.667" y="141" fill="#C69C6D" width="3" height="5"/>
			<rect x="72.667" y="156" fill="#C69C6D" width="3" height="4"/>
			<rect x="72.667" y="170" fill="#C69C6D" width="3" height="4"/>
			<rect x="72.667" y="184" fill="#C69C6D" width="3" height="4"/>
			<rect x="72.667" y="198" fill="#C69C6D" width="3" height="4"/>
			<rect x="72.667" y="212" fill="#C69C6D" width="3" height="4"/>
			<rect x="72.667" y="226" fill="#C69C6D" width="3" height="4"/>
			<rect x="72.667" y="240" fill="#C69C6D" width="3" height="4"/>
			<rect x="72.667" y="254" fill="#C69C6D" width="3" height="4"/>
			<rect x="92.667" y="141" fill="#C69C6D" width="3" height="5"/>
			<rect x="92.667" y="156" fill="#C69C6D" width="3" height="4"/>
			<rect x="92.667" y="170" fill="#C69C6D" width="3" height="4"/>
			<rect x="92.667" y="184" fill="#C69C6D" width="3" height="4"/>
			<rect x="92.667" y="198" fill="#C69C6D" width="3" height="4"/>
			<rect x="92.667" y="212" fill="#C69C6D" width="3" height="4"/>
			<rect x="92.667" y="226" fill="#C69C6D" width="3" height="4"/>
			<rect x="92.667" y="240" fill="#C69C6D" width="3" height="4"/>
			<rect x="92.667" y="254" fill="#C69C6D" width="3" height="4"/>
			<rect x="100.667" y="141" fill="#C69C6D" width="3" height="5"/>
			<rect x="100.667" y="156" fill="#C69C6D" width="3" height="4"/>
			<rect x="100.667" y="170" fill="#C69C6D" width="3" height="4"/>
			<rect x="100.667" y="184" fill="#C69C6D" width="3" height="4"/>
			<rect x="100.667" y="198" fill="#C69C6D" width="3" height="4"/>
			<rect x="100.667" y="212" fill="#C69C6D" width="3" height="4"/>
			<rect x="100.667" y="226" fill="#C69C6D" width="3" height="4"/>
			<rect x="100.667" y="240" fill="#C69C6D" width="3" height="4"/>
			<rect x="100.667" y="254" fill="#C69C6D" width="3" height="4"/>
			<rect x="108.667" y="141" fill="#C69C6D" width="3" height="5"/>
			<rect x="108.667" y="156" fill="#C69C6D" width="3" height="4"/>
			<rect x="108.667" y="170" fill="#C69C6D" width="3" height="4"/>
			<rect x="108.667" y="184" fill="#C69C6D" width="3" height="4"/>
			<rect x="108.667" y="198" fill="#C69C6D" width="3" height="4"/>
			<rect x="108.667" y="212" fill="#C69C6D" width="3" height="4"/>
			<rect x="108.667" y="226" fill="#C69C6D" width="3" height="4"/>
			<rect x="108.667" y="240" fill="#C69C6D" width="3" height="4"/>
			<rect x="108.667" y="254" fill="#C69C6D" width="3" height="4"/>
			<rect x="116.667" y="141" fill="#C69C6D" width="3" height="5"/>
			<rect x="116.667" y="156" fill="#C69C6D" width="3" height="4"/>
			<rect x="116.667" y="170" fill="#C69C6D" width="3" height="4"/>
			<rect x="116.667" y="184" fill="#C69C6D" width="3" height="4"/>
			<rect x="116.667" y="198" fill="#C69C6D" width="3" height="4"/>
			<rect x="116.667" y="212" fill="#C69C6D" width="3" height="4"/>
			<rect x="116.667" y="226" fill="#C69C6D" width="3" height="4"/>
			<rect x="116.667" y="240" fill="#C69C6D" width="3" height="4"/>
			<rect x="116.667" y="254" fill="#C69C6D" width="3" height="4"/>
			<rect x="124.667" y="141" fill="#C69C6D" width="3" height="5"/>
			<rect x="124.667" y="156" fill="#C69C6D" width="3" height="4"/>
			<rect x="124.667" y="170" fill="#C69C6D" width="3" height="4"/>
			<rect x="124.667" y="184" fill="#C69C6D" width="3" height="4"/>
			<rect x="124.667" y="198" fill="#C69C6D" width="3" height="4"/>
			<rect x="124.667" y="212" fill="#C69C6D" width="3" height="4"/>
			<rect x="124.667" y="226" fill="#C69C6D" width="3" height="4"/>
			<rect x="124.667" y="240" fill="#C69C6D" width="3" height="4"/>
			<rect x="124.667" y="254" fill="#C69C6D" width="3" height="4"/>
			<rect x="132.667" y="141" fill="#C69C6D" width="4" height="5"/>
			<rect x="132.667" y="156" fill="#C69C6D" width="4" height="4"/>
			<rect x="132.667" y="170" fill="#C69C6D" width="4" height="4"/>
			<rect x="132.667" y="184" fill="#C69C6D" width="4" height="4"/>
			<rect x="132.667" y="198" fill="#C69C6D" width="4" height="4"/>
			<rect x="132.667" y="212" fill="#C69C6D" width="4" height="4"/>
			<rect x="132.667" y="226" fill="#C69C6D" width="4" height="4"/>
			<rect x="132.667" y="240" fill="#C69C6D" width="4" height="4"/>
			<rect x="132.667" y="254" fill="#C69C6D" width="4" height="4"/>
			<rect x="153.667" y="141" fill="#C69C6D" width="3" height="5"/>
			<rect x="153.667" y="156" fill="#C69C6D" width="3" height="4"/>
			<rect x="153.667" y="170" fill="#C69C6D" width="3" height="4"/>
			<rect x="153.667" y="184" fill="#C69C6D" width="3" height="4"/>
			<rect x="153.667" y="198" fill="#C69C6D" width="3" height="4"/>
			<rect x="153.667" y="212" fill="#C69C6D" width="3" height="4"/>
			<rect x="153.667" y="226" fill="#C69C6D" width="3" height="4"/>
			<rect x="153.667" y="240" fill="#C69C6D" width="3" height="4"/>
			<rect x="153.667" y="254" fill="#C69C6D" width="3" height="4"/>
			<rect x="161.667" y="141" fill="#C69C6D" width="3" height="5"/>
			<rect x="161.667" y="156" fill="#C69C6D" width="3" height="4"/>
			<rect x="161.667" y="170" fill="#C69C6D" width="3" height="4"/>
			<rect x="161.667" y="184" fill="#C69C6D" width="3" height="4"/>
			<rect x="161.667" y="198" fill="#C69C6D" width="3" height="4"/>
			<rect x="161.667" y="212" fill="#C69C6D" width="3" height="4"/>
			<rect x="161.667" y="226" fill="#C69C6D" width="3" height="4"/>
			<rect x="161.667" y="240" fill="#C69C6D" width="3" height="4"/>
			<rect x="161.667" y="254" fill="#C69C6D" width="3" height="4"/>
			<rect x="169.667" y="141" fill="#C69C6D" width="3" height="5"/>
			<rect x="169.667" y="156" fill="#C69C6D" width="3" height="4"/>
			<rect x="169.667" y="170" fill="#C69C6D" width="3" height="4"/>
			<rect x="169.667" y="184" fill="#C69C6D" width="3" height="4"/>
			<rect x="169.667" y="198" fill="#C69C6D" width="3" height="4"/>
			<rect x="169.667" y="212" fill="#C69C6D" width="3" height="4"/>
			<rect x="169.667" y="226" fill="#C69C6D" width="3" height="4"/>
			<rect x="169.667" y="240" fill="#C69C6D" width="3" height="4"/>
			<rect x="169.667" y="254" fill="#C69C6D" width="3" height="4"/>
			<rect x="177.667" y="141" fill="#C69C6D" width="3" height="5"/>
			<rect x="177.667" y="156" fill="#C69C6D" width="3" height="4"/>
			<rect x="177.667" y="170" fill="#C69C6D" width="3" height="4"/>
			<rect x="177.667" y="184" fill="#C69C6D" width="3" height="4"/>
			<rect x="177.667" y="198" fill="#C69C6D" width="3" height="4"/>
			<rect x="177.667" y="212" fill="#C69C6D" width="3" height="4"/>
			<rect x="177.667" y="226" fill="#C69C6D" width="3" height="4"/>
			<rect x="177.667" y="240" fill="#C69C6D" width="3" height="4"/>
			<rect x="177.667" y="254" fill="#C69C6D" width="3" height="4"/>
			<rect x="185.667" y="141" fill="#C69C6D" width="3" height="5"/>
			<rect x="185.667" y="156" fill="#C69C6D" width="3" height="4"/>
			<rect x="185.667" y="170" fill="#C69C6D" width="3" height="4"/>
			<rect x="185.667" y="184" fill="#C69C6D" width="3" height="4"/>
			<rect x="185.667" y="198" fill="#C69C6D" width="3" height="4"/>
			<rect x="185.667" y="212" fill="#C69C6D" width="3" height="4"/>
			<rect x="185.667" y="226" fill="#C69C6D" width="3" height="4"/>
			<rect x="185.667" y="240" fill="#C69C6D" width="3" height="4"/>
			<rect x="185.667" y="254" fill="#C69C6D" width="3" height="4"/>
			<rect x="193.667" y="141" fill="#C69C6D" width="3" height="5"/>
			<rect x="193.667" y="156" fill="#C69C6D" width="3" height="4"/>
			<rect x="193.667" y="170" fill="#C69C6D" width="3" height="4"/>
			<rect x="193.667" y="184" fill="#C69C6D" width="3" height="4"/>
			<rect x="193.667" y="198" fill="#C69C6D" width="3" height="4"/>
			<rect x="193.667" y="212" fill="#C69C6D" width="3" height="4"/>
			<rect x="193.667" y="226" fill="#C69C6D" width="3" height="4"/>
			<rect x="193.667" y="240" fill="#C69C6D" width="3" height="4"/>
			<rect x="193.667" y="254" fill="#C69C6D" width="3" height="4"/>
			<rect x="213.667" y="141" fill="#C69C6D" width="3" height="5"/>
			<rect x="213.667" y="156" fill="#C69C6D" width="3" height="4"/>
			<rect x="213.667" y="170" fill="#C69C6D" width="3" height="4"/>
			<rect x="213.667" y="184" fill="#C69C6D" width="3" height="4"/>
			<rect x="213.667" y="198" fill="#C69C6D" width="3" height="4"/>
			<rect x="213.667" y="212" fill="#C69C6D" width="3" height="4"/>
			<rect x="213.667" y="226" fill="#C69C6D" width="3" height="4"/>
			<rect x="213.667" y="240" fill="#C69C6D" width="3" height="4"/>
			<rect x="213.667" y="254" fill="#C69C6D" width="3" height="4"/>
			<rect x="221.667" y="141" fill="#C69C6D" width="3" height="5"/>
			<rect x="221.667" y="156" fill="#C69C6D" width="3" height="4"/>
			<rect x="221.667" y="170" fill="#C69C6D" width="3" height="4"/>
			<rect x="221.667" y="184" fill="#C69C6D" width="3" height="4"/>
			<rect x="221.667" y="198" fill="#C69C6D" width="3" height="4"/>
			<rect x="221.667" y="212" fill="#C69C6D" width="3" height="4"/>
			<rect x="221.667" y="226" fill="#C69C6D" width="3" height="4"/>
			<rect x="221.667" y="240" fill="#C69C6D" width="3" height="4"/>
			<rect x="221.667" y="254" fill="#C69C6D" width="3" height="4"/>
			<rect x="229.667" y="141" fill="#C69C6D" width="3" height="5"/>
			<rect x="229.667" y="156" fill="#C69C6D" width="3" height="4"/>
			<rect x="229.667" y="170" fill="#C69C6D" width="3" height="4"/>
			<rect x="229.667" y="184" fill="#C69C6D" width="3" height="4"/>
			<rect x="229.667" y="198" fill="#C69C6D" width="3" height="4"/>
			<rect x="229.667" y="212" fill="#C69C6D" width="3" height="4"/>
			<rect x="229.667" y="226" fill="#C69C6D" width="3" height="4"/>
			<rect x="229.667" y="240" fill="#C69C6D" width="3" height="4"/>
			<rect x="229.667" y="254" fill="#C69C6D" width="3" height="4"/>
			<rect x="237.667" y="141" fill="#C69C6D" width="3" height="5"/>
			<rect x="237.667" y="156" fill="#C69C6D" width="3" height="4"/>
			<rect x="237.667" y="170" fill="#C69C6D" width="3" height="4"/>
			<rect x="237.667" y="184" fill="#C69C6D" width="3" height="4"/>
			<rect x="237.667" y="198" fill="#C69C6D" width="3" height="4"/>
			<rect x="237.667" y="212" fill="#C69C6D" width="3" height="4"/>
			<rect x="237.667" y="226" fill="#C69C6D" width="3" height="4"/>
			<rect x="237.667" y="240" fill="#C69C6D" width="3" height="4"/>
			<rect x="237.667" y="254" fill="#C69C6D" width="3" height="4"/>
			<rect x="245.667" y="141" fill="#C69C6D" width="3" height="5"/>
			<rect x="245.667" y="156" fill="#C69C6D" width="3" height="4"/>
			<rect x="245.667" y="170" fill="#C69C6D" width="3" height="4"/>
			<rect x="245.667" y="184" fill="#C69C6D" width="3" height="4"/>
			<rect x="245.667" y="198" fill="#C69C6D" width="3" height="4"/>
			<rect x="245.667" y="212" fill="#C69C6D" width="3" height="4"/>
			<rect x="245.667" y="226" fill="#C69C6D" width="3" height="4"/>
			<rect x="245.667" y="240" fill="#C69C6D" width="3" height="4"/>
			<rect x="245.667" y="254" fill="#C69C6D" width="3" height="4"/>
			<rect x="253.667" y="141" fill="#C69C6D" width="3" height="5"/>
			<rect x="253.667" y="156" fill="#C69C6D" width="3" height="4"/>
			<rect x="253.667" y="170" fill="#C69C6D" width="3" height="4"/>
			<rect x="253.667" y="184" fill="#C69C6D" width="3" height="4"/>
			<rect x="253.667" y="198" fill="#C69C6D" width="3" height="4"/>
			<rect x="253.667" y="212" fill="#C69C6D" width="3" height="4"/>
			<rect x="253.667" y="226" fill="#C69C6D" width="3" height="4"/>
			<rect x="253.667" y="240" fill="#C69C6D" width="3" height="4"/>
			<rect x="253.667" y="254" fill="#C69C6D" width="3" height="4"/>
			<rect x="274.667" y="141" fill="#C69C6D" width="3" height="5"/>
			<rect x="274.667" y="156" fill="#C69C6D" width="3" height="4"/>
			<rect x="274.667" y="170" fill="#C69C6D" width="3" height="4"/>
			<rect x="274.667" y="184" fill="#C69C6D" width="3" height="4"/>
			<rect x="274.667" y="198" fill="#C69C6D" width="3" height="4"/>
			<rect x="274.667" y="212" fill="#C69C6D" width="3" height="4"/>
			<rect x="274.667" y="226" fill="#C69C6D" width="3" height="4"/>
			<rect x="274.667" y="240" fill="#C69C6D" width="3" height="4"/>
			<rect x="274.667" y="254" fill="#C69C6D" width="3" height="4"/>
			<rect x="282.667" y="141" fill="#C69C6D" width="3" height="5"/>
			<rect x="282.667" y="156" fill="#C69C6D" width="3" height="4"/>
			<rect x="282.667" y="170" fill="#C69C6D" width="3" height="4"/>
			<rect x="282.667" y="184" fill="#C69C6D" width="3" height="4"/>
			<rect x="282.667" y="198" fill="#C69C6D" width="3" height="4"/>
			<rect x="282.667" y="212" fill="#C69C6D" width="3" height="4"/>
			<rect x="282.667" y="226" fill="#C69C6D" width="3" height="4"/>
			<rect x="282.667" y="240" fill="#C69C6D" width="3" height="4"/>
			<rect x="282.667" y="254" fill="#C69C6D" width="3" height="4"/>
			<rect x="290.667" y="141" fill="#C69C6D" width="3" height="5"/>
			<rect x="290.667" y="156" fill="#C69C6D" width="3" height="4"/>
			<rect x="290.667" y="170" fill="#C69C6D" width="3" height="4"/>
			<rect x="290.667" y="184" fill="#C69C6D" width="3" height="4"/>
			<rect x="290.667" y="198" fill="#C69C6D" width="3" height="4"/>
			<rect x="290.667" y="212" fill="#C69C6D" width="3" height="4"/>
			<rect x="290.667" y="226" fill="#C69C6D" width="3" height="4"/>
			<rect x="290.667" y="240" fill="#C69C6D" width="3" height="4"/>
			<rect x="290.667" y="254" fill="#C69C6D" width="3" height="4"/>
			<rect x="298.667" y="141" fill="#C69C6D" width="3" height="5"/>
			<rect x="298.667" y="156" fill="#C69C6D" width="3" height="4"/>
			<rect x="298.667" y="170" fill="#C69C6D" width="3" height="4"/>
			<rect x="298.667" y="184" fill="#C69C6D" width="3" height="4"/>
			<rect x="298.667" y="198" fill="#C69C6D" width="3" height="4"/>
			<rect x="298.667" y="212" fill="#C69C6D" width="3" height="4"/>
			<rect x="298.667" y="226" fill="#C69C6D" width="3" height="4"/>
			<rect x="298.667" y="240" fill="#C69C6D" width="3" height="4"/>
			<rect x="298.667" y="254" fill="#C69C6D" width="3" height="4"/>
			<rect x="306.667" y="141" fill="#C69C6D" width="3" height="5"/>
			<rect x="306.667" y="156" fill="#C69C6D" width="3" height="4"/>
			<rect x="306.667" y="170" fill="#C69C6D" width="3" height="4"/>
			<rect x="306.667" y="184" fill="#C69C6D" width="3" height="4"/>
			<rect x="306.667" y="198" fill="#C69C6D" width="3" height="4"/>
			<rect x="306.667" y="212" fill="#C69C6D" width="3" height="4"/>
			<rect x="306.667" y="226" fill="#C69C6D" width="3" height="4"/>
			<rect x="306.667" y="240" fill="#C69C6D" width="3" height="4"/>
			<rect x="306.667" y="254" fill="#C69C6D" width="3" height="4"/>
			<rect x="314.667" y="141" fill="#C69C6D" width="3" height="5"/>
			<rect x="314.667" y="156" fill="#C69C6D" width="3" height="4"/>
			<rect x="314.667" y="170" fill="#C69C6D" width="3" height="4"/>
			<rect x="314.667" y="184" fill="#C69C6D" width="3" height="4"/>
			<rect x="314.667" y="198" fill="#C69C6D" width="3" height="4"/>
			<rect x="314.667" y="212" fill="#C69C6D" width="3" height="4"/>
			<rect x="314.667" y="226" fill="#C69C6D" width="3" height="4"/>
			<rect x="314.667" y="240" fill="#C69C6D" width="3" height="4"/>
			<rect x="314.667" y="254" fill="#C69C6D" width="3" height="4"/>
			<rect x="334.667" y="141" fill="#C69C6D" width="3" height="5"/>
			<rect x="334.667" y="156" fill="#C69C6D" width="3" height="4"/>
			<rect x="334.667" y="170" fill="#C69C6D" width="3" height="4"/>
			<rect x="334.667" y="184" fill="#C69C6D" width="3" height="4"/>
			<rect x="334.667" y="198" fill="#C69C6D" width="3" height="4"/>
			<rect x="334.667" y="212" fill="#C69C6D" width="3" height="4"/>
			<rect x="334.667" y="226" fill="#C69C6D" width="3" height="4"/>
			<rect x="334.667" y="240" fill="#C69C6D" width="3" height="4"/>
			<rect x="334.667" y="254" fill="#C69C6D" width="3" height="4"/>
			<rect x="342.667" y="141" fill="#C69C6D" width="3" height="5"/>
			<rect x="342.667" y="156" fill="#C69C6D" width="3" height="4"/>
			<rect x="342.667" y="170" fill="#C69C6D" width="3" height="4"/>
			<rect x="342.667" y="184" fill="#C69C6D" width="3" height="4"/>
			<rect x="342.667" y="198" fill="#C69C6D" width="3" height="4"/>
			<rect x="342.667" y="212" fill="#C69C6D" width="3" height="4"/>
			<rect x="342.667" y="226" fill="#C69C6D" width="3" height="4"/>
			<rect x="342.667" y="240" fill="#C69C6D" width="3" height="4"/>
			<rect x="342.667" y="254" fill="#C69C6D" width="3" height="4"/>
			<rect x="350.667" y="141" fill="#C69C6D" width="3" height="5"/>
			<rect x="350.667" y="156" fill="#C69C6D" width="3" height="4"/>
			<rect x="350.667" y="170" fill="#C69C6D" width="3" height="4"/>
			<rect x="350.667" y="184" fill="#C69C6D" width="3" height="4"/>
			<rect x="350.667" y="198" fill="#C69C6D" width="3" height="4"/>
			<rect x="350.667" y="212" fill="#C69C6D" width="3" height="4"/>
			<rect x="350.667" y="226" fill="#C69C6D" width="3" height="4"/>
			<rect x="350.667" y="240" fill="#C69C6D" width="3" height="4"/>
			<rect x="350.667" y="254" fill="#C69C6D" width="3" height="4"/>
			<rect x="358.667" y="141" fill="#C69C6D" width="3" height="5"/>
			<rect x="358.667" y="156" fill="#C69C6D" width="3" height="4"/>
			<rect x="358.667" y="170" fill="#C69C6D" width="3" height="4"/>
			<rect x="358.667" y="184" fill="#C69C6D" width="3" height="4"/>
			<rect x="358.667" y="198" fill="#C69C6D" width="3" height="4"/>
			<rect x="358.667" y="212" fill="#C69C6D" width="3" height="4"/>
			<rect x="358.667" y="226" fill="#C69C6D" width="3" height="4"/>
			<rect x="358.667" y="240" fill="#C69C6D" width="3" height="4"/>
			<rect x="358.667" y="254" fill="#C69C6D" width="3" height="4"/>
		</g>
		<circle fill="#1A1A1A" stroke="#666666" stroke-width="3" stroke-miterlimit="10" cx="202.036" cy="200.186" r="17.702"/>
		<g>
			<path fill="#B3B3B3" stroke="#808080" stroke-width="3" stroke-miterlimit="10" d="M83.167,221.18
				c0,7.521-6.474,14.32-13.993,14.32h-0.98c-7.52,0-14.027-6.799-14.027-14.32v-43.301c0-7.518,6.507-13.378,14.027-13.378h0.98
				c7.52,0,13.993,5.861,13.993,13.378V221.18z"/>
			<polygon fill="#1A1A1A" points="120.667,207.592 86.667,211.623 86.667,187.439 120.667,191.469 			"/>
		</g>
		<g>
			<path fill="#B3B3B3" stroke="#808080" stroke-width="3" stroke-miterlimit="10" d="M320.167,222.225
				c0,7.521-5.675,14.275-13.194,14.275h-0.98c-7.52,0-13.825-6.754-13.825-14.275v-43.3c0-7.518,6.306-13.424,13.825-13.424h0.98
				c7.52,0,13.194,5.907,13.194,13.424V222.225z"/>
			<polygon fill="#1A1A1A" points="357.667,210.652 323.667,214.684 323.667,190.5 357.667,194.531 			"/>
		</g>
	</g>
</g>
</svg>
