<?xml version="1.0" encoding="utf-8"?>
<!-- Generator: Adobe Illustrator 16.0.0, SVG Export Plug-In . SVG Version: 6.00 Build 0)  -->
<!DOCTYPE svg PUBLIC "-//W3C//DTD SVG 1.1//EN" "http://www.w3.org/Graphics/SVG/1.1/DTD/svg11.dtd">
<svg version="1.1" xmlns="http://www.w3.org/2000/svg" xmlns:xlink="http://www.w3.org/1999/xlink" x="0px" y="0px"
	 width="22.167px" height="100px" viewBox="0 0 22.167 100" enable-background="new 0 0 22.167 100" xml:space="preserve">
<g id="Layer_2">
	<rect x="0.167" fill="#FFFFFF" width="22" height="100"/>
</g>
<g id="Layer_1">
	<path fill="none" stroke="#999999" stroke-width="5" stroke-miterlimit="10" d="M19.667,97.5h-17v-95h17V97.5z M5.667,2.5
		l13.972,13.972L5.667,2.5z M2.667,16.5l16.972,16.972 M2.667,33.5l16.972,16.973 M2.667,50.5l16.972,16.973 M19.638,84.473
		L2.667,67.5 M2.667,84.5l13,13"/>
	<path display="none" fill="none" stroke="#999999" stroke-width="5" stroke-miterlimit="10" d="M2.667,2.5h17v95h-17V2.5z
		 M2.695,16.472L16.667,2.5L2.695,16.472z M2.695,33.472L19.667,16.5 M2.695,50.473L19.667,33.5 M2.695,67.473L19.667,50.5
		 M19.667,67.5L2.695,84.473 M6.667,97.5l13-13"/>
	<g display="none">
		<path display="inline" fill="#999999" d="M11.083,21.5c3.17,0,5.75,2.579,5.75,5.75s-2.579,5.75-5.75,5.75s-5.75-2.579-5.75-5.75
			S7.913,21.5,11.083,21.5 M11.083,16.5c-5.938,0-10.75,4.812-10.75,10.75s4.812,10.75,10.75,10.75s10.75-4.812,10.75-10.75
			S17.021,16.5,11.083,16.5L11.083,16.5z"/>
	</g>
</g>
</svg>
